<svg width="750" height="638" viewBox="0 0 750 638" fill="none" xmlns="http://www.w3.org/2000/svg">
<path fill-rule="evenodd" clip-rule="evenodd" d="M257.5 0C218.84 0 187.5 31.3401 187.5 70V112.5H70C31.3401 112.5 0 143.84 0 182.5V567.5C0 606.16 31.34 637.5 70 637.5H680C718.66 637.5 750 606.16 750 567.5V182.5C750 143.84 718.66 112.5 680 112.5H562.5V70C562.5 31.3401 531.16 0 492.5 0H257.5ZM375 225C292.157 225 225 292.157 225 375C225 457.843 292.157 525 375 525C457.843 525 525 457.843 525 375C525 292.157 457.843 225 375 225Z" fill="#EE0100"/>
</svg>
