<svg width="500" height="595" viewBox="0 0 500 595" fill="none" xmlns="http://www.w3.org/2000/svg">
<path fill-rule="evenodd" clip-rule="evenodd" d="M263.807 590.663C255.485 596.373 244.514 596.375 236.198 590.655C94.1623 492.966 4.36043 382.75 0 250C0 111.929 111.929 0 250 0C388.071 0 500 111.929 500 250C500 383.79 406.105 493.034 263.807 590.663ZM450 250C450 360.457 360.457 450 250 450C139.543 450 50 360.457 50 250C50 139.543 139.543 50 250 50C360.457 50 450 139.543 450 250ZM97.3223 268.143L149.311 320.132L197.057 367.878C209.163 379.984 228.791 379.984 240.897 367.878L402.12 206.655L366.765 171.299L218.977 319.087L184.666 284.776L132.678 232.788L97.3223 268.143Z" fill="#EE0100"/>
</svg>
