<svg width="822" height="822" viewBox="0 0 822 822" fill="none" xmlns="http://www.w3.org/2000/svg">
<path fill-rule="evenodd" clip-rule="evenodd" d="M340.367 29.7107C379.419 -9.34174 442.735 -9.3417 481.788 29.7107L792.444 340.367C831.496 379.419 831.496 442.735 792.444 481.788L481.788 792.444C442.735 831.496 379.419 831.496 340.366 792.444L29.7107 481.788C-9.34174 442.735 -9.34171 379.419 29.7107 340.367L340.367 29.7107ZM729.468 384.584C744.858 398.832 744.858 423.168 729.468 437.417L568.708 586.255C545.66 607.593 508.25 591.247 508.25 559.838V461H366V626H266V453C266 402.19 307.19 361 358 361H508.25V262.162C508.25 230.753 545.66 214.407 568.708 235.745L729.468 384.584Z" fill="#A1A2A1"/>
</svg>
