<svg width="500" height="595" viewBox="0 0 500 595" fill="none" xmlns="http://www.w3.org/2000/svg">
<path fill-rule="evenodd" clip-rule="evenodd" d="M263.807 590.663C255.485 596.373 244.514 596.375 236.198 590.655C94.1623 492.966 4.36043 382.75 0 250C0 111.929 111.929 0 250 0C388.071 0 500 111.929 500 250C500 383.79 406.105 493.034 263.807 590.663ZM450 250C450 360.457 360.457 450 250 450C139.543 450 50 360.457 50 250C50 139.543 139.543 50 250 50C360.457 50 450 139.543 450 250ZM184.75 165C184.75 151.193 195.943 140 209.75 140H289.25C303.057 140 314.25 151.193 314.25 165V178.85H354C367.807 178.85 379 190.043 379 203.85V335.15C379 348.957 367.807 360.15 354 360.15H145C131.193 360.15 120 348.957 120 335.15V203.85C120 190.043 131.193 178.85 145 178.85H184.75V165ZM249.57 217.7H249.43C220.854 217.738 197.7 240.915 197.7 269.5C197.7 298.108 220.892 321.3 249.5 321.3C278.108 321.3 301.3 298.108 301.3 269.5C301.3 240.915 278.146 217.738 249.57 217.7Z" fill="#EE0100"/>
</svg>
