<svg width="500" height="595" viewBox="0 0 500 595" fill="none" xmlns="http://www.w3.org/2000/svg">
<path fill-rule="evenodd" clip-rule="evenodd" d="M236.198 590.655C244.514 596.375 255.485 596.373 263.807 590.663C406.105 493.034 500 383.79 500 250C500 111.929 388.071 0 250 0C111.929 0 0 111.929 0 250C4.36043 382.75 94.1624 492.966 236.198 590.655ZM250 450C360.457 450 450 360.457 450 250C450 139.543 360.457 50 250 50C139.543 50 50 139.543 50 250C50 360.457 139.543 450 250 450Z" fill="#EE0100"/>
</svg>
