<svg width="500" height="595" viewBox="0 0 500 595" fill="none" xmlns="http://www.w3.org/2000/svg">
<path fill-rule="evenodd" clip-rule="evenodd" d="M263.807 590.663C255.485 596.373 244.514 596.375 236.198 590.655C94.1623 492.966 4.36043 382.75 0 250C0 111.929 111.929 0 250 0C388.071 0 500 111.929 500 250C500 383.79 406.105 493.034 263.807 590.663ZM450 250C450 360.457 360.457 450 250 450C139.543 450 50 360.457 50 250C50 139.543 139.543 50 250 50C360.457 50 450 139.543 450 250ZM276.644 145.241C265.526 138.855 252.512 136.593 239.892 138.854C227.271 141.114 215.851 147.752 207.641 157.6C199.43 167.447 194.954 179.874 195 192.696L145.001 192.875C144.912 168.291 153.494 144.463 169.238 125.581C184.981 106.698 206.877 93.9712 231.077 89.637C255.276 85.3028 280.229 89.6391 301.547 101.883C322.865 114.128 339.184 133.496 347.634 156.583C356.083 179.669 356.123 204.996 347.746 228.109C339.369 251.222 323.111 270.642 301.831 282.953C289.123 290.305 283.112 295.588 278.343 300.27C277.875 301.506 277.24 303.652 276.624 306.899C275.334 313.691 274.5 323.264 274.5 335.101H224.5C224.5 321.27 225.449 308.383 227.501 297.572C228.527 292.171 229.923 286.776 231.872 281.816C233.712 277.133 236.66 271.231 241.626 266.265C249.08 258.811 258.359 250.338 276.792 239.674C287.89 233.253 296.369 223.125 300.738 211.071C305.107 199.017 305.087 185.809 300.68 173.768C296.273 161.728 287.762 151.627 276.644 145.241ZM278.708 299.424C278.709 299.426 278.701 299.442 278.684 299.474C278.675 299.492 278.662 299.515 278.647 299.542C278.657 299.52 278.667 299.5 278.675 299.485C278.696 299.443 278.707 299.423 278.708 299.424ZM275.168 384.833C275.168 399.108 263.596 410.679 249.322 410.679C235.047 410.679 223.475 399.108 223.475 384.833C223.475 370.558 235.047 358.987 249.322 358.987C263.596 358.987 275.168 370.558 275.168 384.833Z" fill="#A1A2A1"/>
</svg>
